<svg width="219" height="76" viewBox="0 0 219 76" fill="none" xmlns="http://www.w3.org/2000/svg">
<path d="M2.30972 67.5351C6.37614 53.2734 9.42616 54.2921 24.675 3.35761C84.6546 80.778 161.034 10.4884 202.582 10.4884C256.462 24.7501 82.6212 101.152 2.30972 67.5351Z" fill="#131227"/>
<path d="M9.6618 65.6199H45.5764L24.8864 8.6059L3.12301 68.5538H0L24.8864 0L49.7729 68.5538H9.6618V65.6199Z" fill="white"/>
<path d="M53.9595 68.5538V11.8331H56.8873L88.703 63.1751V11.8331H91.6308V68.5538H88.703L56.8873 17.114V68.5538H53.9595Z" fill="white"/>
<path d="M103.359 11.8331H106.287V68.5538H103.359V11.8331Z" fill="white"/>
<path d="M127.145 65.6199H164.816V15.9405L142.858 37.9442L120.899 15.9405V68.5538L117.971 68.456V11.8331H120.899L142.858 33.8368L164.816 11.8331H167.744V68.5538L127.145 68.456V65.6199Z" fill="white"/>
<path d="M217.341 62.7839C213.762 67.2825 207.907 69.5317 199.774 69.5317C191.641 69.5317 185.818 67.2173 182.305 62.5883C178.791 57.9594 177.035 50.4944 177.035 40.1934C177.035 29.8924 178.791 22.4275 182.305 17.7986C185.818 13.1696 191.641 10.8552 199.774 10.8552C209.208 10.8552 215.617 13.952 219 20.1456L195.089 40.1934H190.503L215.194 19.5589C212.331 15.7123 207.191 13.789 199.774 13.789C196.521 13.789 193.788 14.1476 191.576 14.8647C189.364 15.5167 187.314 16.788 185.428 18.6787C183.606 20.5042 182.24 23.2098 181.329 26.7956C180.418 30.3162 179.962 34.7822 179.962 40.1934C179.962 45.6047 180.418 50.1033 181.329 53.6891C182.24 57.2096 183.606 59.9153 185.428 61.806C187.314 63.6315 189.364 64.9028 191.576 65.6199C193.788 66.2719 196.521 66.5979 199.774 66.5979C207.191 66.5979 212.331 64.6746 215.194 60.828L217.341 62.7839Z" fill="white"/>
</svg>
